<svg width="100" height="104" viewBox="0 0 100 104" fill="none" xmlns="http://www.w3.org/2000/svg">
<path d="M97.9131 65.2144L90.3104 58.7144C90.6702 56.509 90.8559 54.2572 90.8559 52.0054C90.8559 49.7537 90.6702 47.5019 90.3104 45.2965L97.9131 38.7965C98.4865 38.3056 98.8969 37.6518 99.0898 36.9219C99.2826 36.1921 99.2487 35.4209 98.9925 34.7108L98.8881 34.409C96.7951 28.5593 93.6609 23.1366 89.6372 18.4028L89.4283 18.159C88.9401 17.5851 88.2895 17.1725 87.5623 16.9756C86.835 16.7788 86.0651 16.8069 85.3541 17.0563L75.9175 20.4108C72.4354 17.5554 68.547 15.3037 64.3452 13.7251L62.5229 3.85901C62.3854 3.11665 62.0253 2.43368 61.4904 1.90086C60.9555 1.36804 60.2711 1.01058 59.5282 0.875978L59.2149 0.817942C53.1675 -0.273129 46.8068 -0.273129 40.7595 0.817942L40.4461 0.875978C39.7032 1.01058 39.0189 1.36804 38.484 1.90086C37.9491 2.43368 37.589 3.11665 37.4515 3.85901L35.6175 13.7715C31.4493 15.3504 27.5676 17.601 24.1265 20.434L14.6202 17.0563C13.9095 16.8049 13.139 16.7758 12.4113 16.9728C11.6836 17.1697 11.0331 17.5835 10.5461 18.159L10.3372 18.4028C6.31817 23.1399 3.18458 28.5618 1.08629 34.409L0.981824 34.7108C0.459503 36.1617 0.888967 37.7867 2.06129 38.7965L9.75682 45.3662C9.397 47.5483 9.2229 49.7769 9.2229 51.9938C9.2229 54.2224 9.397 56.451 9.75682 58.6215L2.06129 65.1912C1.48785 65.6821 1.07743 66.3359 0.884603 67.0657C0.691779 67.7956 0.725689 68.5668 0.981824 69.2769L1.08629 69.5787C3.18718 75.4287 6.2979 80.826 10.3372 85.5849L10.5461 85.8287C11.0342 86.4026 11.6848 86.8152 12.4121 87.012C13.1394 87.2089 13.9092 87.1807 14.6202 86.9313L24.1265 83.5537C27.5854 86.3974 31.4506 88.6492 35.6175 90.2162L37.4515 100.129C37.589 100.871 37.9491 101.554 38.484 102.087C39.0189 102.62 39.7032 102.977 40.4461 103.112L40.7595 103.17C46.8624 104.267 53.112 104.267 59.2149 103.17L59.5282 103.112C60.2711 102.977 60.9555 102.62 61.4904 102.087C62.0253 101.554 62.3854 100.871 62.5229 100.129L64.3452 90.2626C68.5453 88.6882 72.4556 86.429 75.9175 83.5769L85.3541 86.9313C86.0649 87.1827 86.8353 87.2119 87.563 87.0149C88.2908 86.8179 88.9413 86.4042 89.4283 85.8287L89.6372 85.5849C93.6765 80.8144 96.7872 75.4287 98.8881 69.5787L98.9925 69.2769C99.5149 67.8492 99.0854 66.2242 97.9131 65.2144V65.2144ZM82.0693 46.6662C82.3595 48.4188 82.5104 50.2179 82.5104 52.017C82.5104 53.8162 82.3595 55.6153 82.0693 57.3679L81.3033 62.0224L89.9738 69.4394C88.6594 72.4675 87.0002 75.3341 85.0291 77.9822L74.2577 74.1635L70.6131 77.1581C67.839 79.4331 64.7515 81.2206 61.4086 82.4742L56.9863 84.134L54.9086 95.3929C51.6304 95.7644 48.3207 95.7644 45.0425 95.3929L42.9649 84.1108L38.5774 82.4278C35.2693 81.1742 32.1934 79.3867 29.4425 77.1233L25.7979 74.1171L14.9568 77.9706C12.9836 75.3126 11.3354 72.4456 10.0122 69.4278L18.7756 61.9412L18.0211 57.2983C17.7425 55.5688 17.5916 53.7813 17.5916 52.017C17.5916 50.2412 17.7309 48.4653 18.0211 46.7358L18.7756 42.0929L10.0122 34.6063C11.3238 31.5769 12.9836 28.7215 14.9568 26.0635L25.7979 29.917L29.4425 26.9108C32.1934 24.6474 35.2693 22.8599 38.5774 21.6063L42.9765 19.9465L45.0541 8.66437C48.3158 8.29294 51.647 8.29294 54.9202 8.66437L56.9979 19.9233L61.4202 21.5831C64.7515 22.8367 67.8506 24.6242 70.6247 26.8992L74.2693 29.8938L85.0408 26.0751C87.014 28.7331 88.6622 31.6001 89.9854 34.6179L81.3149 42.0349L82.0693 46.6662ZM49.9988 30.4278C38.7166 30.4278 29.5702 39.5742 29.5702 50.8563C29.5702 62.1385 38.7166 71.2849 49.9988 71.2849C61.2809 71.2849 70.4274 62.1385 70.4274 50.8563C70.4274 39.5742 61.2809 30.4278 49.9988 30.4278ZM59.1916 60.0492C57.9859 61.2584 56.553 62.2173 54.9753 62.8706C53.3977 63.524 51.7064 63.859 49.9988 63.8563C46.5283 63.8563 43.2666 62.4983 40.8059 60.0492C39.5967 58.8435 38.6379 57.4106 37.9845 55.8329C37.3311 54.2552 36.9961 52.5639 36.9988 50.8563C36.9988 47.3858 38.3568 44.1242 40.8059 41.6635C43.2666 39.2028 46.5283 37.8563 49.9988 37.8563C53.4693 37.8563 56.7309 39.2028 59.1916 41.6635C60.4008 42.8692 61.3597 44.3021 62.0131 45.8798C62.6665 47.4574 63.0014 49.1487 62.9988 50.8563C62.9988 54.3269 61.6408 57.5885 59.1916 60.0492Z" fill="black" fill-opacity="0.85"/>
</svg>
