<svg width="22" height="22" viewBox="0 0 22 22" fill="none" xmlns="http://www.w3.org/2000/svg">
<path d="M21.1355 13.7954L19.5272 12.4204C19.6033 11.9539 19.6426 11.4776 19.6426 11.0012C19.6426 10.5249 19.6033 10.0486 19.5272 9.58205L21.1355 8.20705C21.2568 8.10321 21.3436 7.96489 21.3844 7.81051C21.4252 7.65612 21.418 7.49298 21.3638 7.34277L21.3417 7.27893C20.899 6.04149 20.236 4.89437 19.3848 3.89299L19.3406 3.84143C19.2373 3.72001 19.0997 3.63274 18.9459 3.5911C18.792 3.54946 18.6292 3.55541 18.4788 3.60817L16.4826 4.31777C15.7459 3.71375 14.9234 3.23741 14.0346 2.90348L13.6491 0.816426C13.62 0.659387 13.5438 0.514914 13.4307 0.402202C13.3175 0.28949 13.1727 0.213873 13.0156 0.185399L12.9493 0.173122C11.6701 -0.0576811 10.3245 -0.0576811 9.04528 0.173122L8.97898 0.185399C8.82183 0.213873 8.67707 0.28949 8.56391 0.402202C8.45076 0.514914 8.37459 0.659387 8.3455 0.816426L7.95756 2.9133C7.07581 3.2473 6.25468 3.72339 5.52675 4.32268L3.51582 3.60817C3.36546 3.55499 3.20249 3.54882 3.04855 3.59049C2.89461 3.63215 2.75699 3.71968 2.65398 3.84143L2.60979 3.89299C1.75961 4.89508 1.09674 6.04201 0.652869 7.27893L0.63077 7.34277C0.520279 7.64969 0.611128 7.99344 0.859119 8.20705L2.48702 9.59678C2.4109 10.0584 2.37407 10.5298 2.37407 10.9988C2.37407 11.4702 2.4109 11.9417 2.48702 12.4008L0.859119 13.7905C0.737814 13.8944 0.650994 14.0327 0.610204 14.1871C0.569415 14.3415 0.576588 14.5046 0.63077 14.6548L0.652869 14.7187C1.09729 15.9562 1.75532 17.0979 2.60979 18.1046L2.65398 18.1562C2.75724 18.2776 2.89486 18.3648 3.04871 18.4065C3.20256 18.4481 3.36542 18.4422 3.51582 18.3894L5.52675 17.6749C6.25845 18.2765 7.07608 18.7528 7.95756 19.0843L8.3455 21.1812C8.37459 21.3382 8.45076 21.4827 8.56391 21.5954C8.67707 21.7081 8.82183 21.7837 8.97898 21.8122L9.04528 21.8245C10.3363 22.0565 11.6583 22.0565 12.9493 21.8245L13.0156 21.8122C13.1727 21.7837 13.3175 21.7081 13.4307 21.5954C13.5438 21.4827 13.62 21.3382 13.6491 21.1812L14.0346 19.0941C14.923 18.7611 15.7502 18.2832 16.4826 17.6798L18.4788 18.3894C18.6291 18.4426 18.7921 18.4488 18.946 18.4071C19.1 18.3654 19.2376 18.2779 19.3406 18.1562L19.3848 18.1046C20.2393 17.0954 20.8973 15.9562 21.3417 14.7187L21.3638 14.6548C21.4743 14.3528 21.3834 14.0091 21.1355 13.7954V13.7954ZM17.7839 9.87178C17.8453 10.2425 17.8772 10.6231 17.8772 11.0037C17.8772 11.3843 17.8453 11.7649 17.7839 12.1356L17.6218 13.1202L19.456 14.6892C19.1779 15.3298 18.827 15.9362 18.41 16.4963L16.1314 15.6885L15.3605 16.322C14.7736 16.8033 14.1205 17.1814 13.4134 17.4466L12.4779 17.7977L12.0384 20.1794C11.3449 20.2579 10.6448 20.2579 9.95131 20.1794L9.5118 17.7928L8.58367 17.4367C7.8839 17.1716 7.23323 16.7934 6.65131 16.3146L5.88032 15.6787L3.58702 16.4939C3.16961 15.9316 2.82095 15.3251 2.54104 14.6867L4.39483 13.103L4.23523 12.1209C4.17631 11.755 4.14439 11.3769 4.14439 11.0037C4.14439 10.628 4.17385 10.2524 4.23523 9.88652L4.39483 8.90437L2.54104 7.32067C2.81849 6.67982 3.16961 6.0758 3.58702 5.51352L5.88032 6.3287L6.65131 5.69277C7.23323 5.21397 7.8839 4.83585 8.58367 4.57067L9.51425 4.21955L9.95376 1.83294C10.6437 1.75437 11.3484 1.75437 12.0408 1.83294L12.4803 4.21464L13.4158 4.56576C14.1205 4.83094 14.7761 5.20906 15.3629 5.69031L16.1339 6.32379L18.4125 5.51598C18.8299 6.07826 19.1785 6.68473 19.4584 7.32312L17.6243 8.8921L17.7839 9.87178ZM10.9997 6.43674C8.61314 6.43674 6.67832 8.37156 6.67832 10.7582C6.67832 13.1448 8.61314 15.0796 10.9997 15.0796C13.3864 15.0796 15.3212 13.1448 15.3212 10.7582C15.3212 8.37156 13.3864 6.43674 10.9997 6.43674ZM12.9444 12.7028C12.6893 12.9586 12.3862 13.1614 12.0525 13.2997C11.7187 13.4379 11.361 13.5087 10.9997 13.5082C10.2656 13.5082 9.57564 13.2209 9.0551 12.7028C8.79931 12.4478 8.59647 12.1446 8.45826 11.8109C8.32004 11.4772 8.24918 11.1194 8.24974 10.7582C8.24974 10.024 8.53702 9.33406 9.0551 8.81352C9.57564 8.29299 10.2656 8.00817 10.9997 8.00817C11.7339 8.00817 12.4239 8.29299 12.9444 8.81352C13.2002 9.06858 13.403 9.3717 13.5412 9.70544C13.6794 10.0392 13.7503 10.3969 13.7497 10.7582C13.7497 11.4923 13.4625 12.1823 12.9444 12.7028Z" fill="black" fill-opacity="0.85"/>
</svg>
