<svg width="12" height="12" viewBox="0 0 12 12" fill="none" xmlns="http://www.w3.org/2000/svg">
<path d="M11.5284 7.52484L10.6512 6.77484C10.6927 6.52038 10.7141 6.26056 10.7141 6.00074C10.7141 5.74091 10.6927 5.48109 10.6512 5.22663L11.5284 4.47663C11.5946 4.41999 11.642 4.34454 11.6642 4.26033C11.6865 4.17612 11.6825 4.08713 11.653 4.0052L11.6409 3.97038C11.3994 3.29541 11.0378 2.66971 10.5735 2.1235L10.5494 2.09538C10.4931 2.02915 10.418 1.98155 10.3341 1.95884C10.2502 1.93612 10.1614 1.93937 10.0793 1.96815L8.99049 2.3552C8.5887 2.02574 8.14004 1.76591 7.65522 1.58377L7.44495 0.445379C7.42909 0.359721 7.38753 0.280918 7.32582 0.219438C7.2641 0.157959 7.18513 0.116714 7.09941 0.101182L7.06325 0.0944859C6.36549 -0.031407 5.63156 -0.031407 4.93379 0.0944859L4.89763 0.101182C4.81191 0.116714 4.73295 0.157959 4.67123 0.219438C4.60951 0.280918 4.56796 0.359721 4.55209 0.445379L4.34049 1.58913C3.85953 1.77131 3.41165 2.03099 3.01459 2.35788L1.91772 1.96815C1.83571 1.93914 1.74681 1.93578 1.66284 1.9585C1.57888 1.98123 1.50381 2.02897 1.44763 2.09538L1.42352 2.1235C0.959788 2.6701 0.598221 3.2957 0.35611 3.97038L0.344057 4.0052C0.283789 4.17261 0.333342 4.36011 0.46861 4.47663L1.35656 5.23466C1.31504 5.48645 1.29495 5.74359 1.29495 5.9994C1.29495 6.25654 1.31504 6.51368 1.35656 6.76413L0.46861 7.52216C0.402444 7.57881 0.355088 7.65425 0.332839 7.73846C0.31059 7.82267 0.314503 7.91166 0.344057 7.99359L0.35611 8.02841C0.598521 8.70341 0.95745 9.32618 1.42352 9.87529L1.44763 9.90341C1.50395 9.96964 1.57902 10.0172 1.66293 10.04C1.74685 10.0627 1.83568 10.0594 1.91772 10.0306L3.01459 9.64092C3.4137 9.96904 3.85968 10.2289 4.34049 10.4097L4.55209 11.5534C4.56796 11.6391 4.60951 11.7179 4.67123 11.7794C4.73295 11.8408 4.81191 11.8821 4.89763 11.8976L4.93379 11.9043C5.63797 12.0309 6.35907 12.0309 7.06325 11.9043L7.09941 11.8976C7.18513 11.8821 7.2641 11.8408 7.32582 11.7794C7.38753 11.7179 7.42909 11.6391 7.44495 11.5534L7.65522 10.415C8.13984 10.2334 8.59104 9.97269 8.99049 9.64359L10.0793 10.0306C10.1613 10.0597 10.2502 10.063 10.3342 10.0403C10.4182 10.0176 10.4932 9.96982 10.5494 9.90341L10.5735 9.87529C11.0396 9.32484 11.3985 8.70341 11.6409 8.02841L11.653 7.99359C11.7133 7.82886 11.6637 7.64136 11.5284 7.52484V7.52484ZM9.70031 5.38466C9.73379 5.5869 9.7512 5.79449 9.7512 6.00208C9.7512 6.20966 9.73379 6.41725 9.70031 6.61949L9.61191 7.15654L10.6124 8.01234C10.4607 8.36175 10.2693 8.6925 10.0418 8.99806L8.79897 8.55743L8.37843 8.90297C8.05834 9.16547 7.70209 9.37172 7.31638 9.51636L6.80611 9.70788L6.56638 11.007C6.18812 11.0498 5.80624 11.0498 5.42799 11.007L5.18825 9.7052L4.682 9.511C4.30031 9.36636 3.9454 9.16011 3.62799 8.89895L3.20745 8.55208L1.95656 8.99672C1.72888 8.69002 1.5387 8.35922 1.38602 8.011L2.39718 7.14716L2.31013 6.61145C2.27799 6.4119 2.26057 6.20565 2.26057 6.00208C2.26057 5.79716 2.27665 5.59225 2.31013 5.3927L2.39718 4.85699L1.38602 3.99315C1.53736 3.64359 1.72888 3.31413 1.95656 3.00743L3.20745 3.45208L3.62799 3.1052C3.9454 2.84404 4.30031 2.63779 4.682 2.49315L5.18959 2.30163L5.42932 0.999843C5.80566 0.956986 6.19004 0.956986 6.56772 0.999843L6.80745 2.29895L7.31772 2.49047C7.70209 2.63511 8.05968 2.84136 8.37977 3.10386L8.80031 3.4494L10.0432 3.00877C10.2708 3.31547 10.461 3.64627 10.6137 3.99449L9.61325 4.85029L9.70031 5.38466ZM5.99986 3.511C4.69807 3.511 3.64272 4.56636 3.64272 5.86815C3.64272 7.16993 4.69807 8.22529 5.99986 8.22529C7.30165 8.22529 8.357 7.16993 8.357 5.86815C8.357 4.56636 7.30165 3.511 5.99986 3.511ZM7.06058 6.92886C6.92145 7.06838 6.75612 7.17902 6.57408 7.25441C6.39204 7.3298 6.19689 7.36845 5.99986 7.36815C5.59941 7.36815 5.22307 7.21145 4.93915 6.92886C4.79962 6.78974 4.68899 6.6244 4.6136 6.44236C4.53821 6.26033 4.49955 6.06518 4.49986 5.86815C4.49986 5.4677 4.65656 5.09136 4.93915 4.80743C5.22307 4.5235 5.59941 4.36815 5.99986 4.36815C6.40031 4.36815 6.77665 4.5235 7.06058 4.80743C7.2001 4.94655 7.31074 5.11189 7.38613 5.29393C7.46151 5.47597 7.50017 5.67112 7.49986 5.86815C7.49986 6.26859 7.34316 6.64493 7.06058 6.92886Z" fill="black" fill-opacity="0.85"/>
</svg>
