<svg width="18" height="18" viewBox="0 0 18 18" fill="none" xmlns="http://www.w3.org/2000/svg">
<path d="M16.9895 15.8836L11.7723 10.6664C12.5819 9.61974 13.0199 8.34005 13.0199 6.99407C13.0199 5.38291 12.3911 3.8722 11.254 2.73313C10.117 1.59407 8.60225 0.967285 6.99309 0.967285C5.38394 0.967285 3.86921 1.59608 2.73216 2.73313C1.59309 3.87019 0.966309 5.38291 0.966309 6.99407C0.966309 8.60322 1.5951 10.118 2.73216 11.255C3.86921 12.3941 5.38193 13.0209 6.99309 13.0209C8.33908 13.0209 9.61676 12.5829 10.6634 11.7753L15.8806 16.9905C15.8959 17.0058 15.9141 17.0179 15.934 17.0262C15.954 17.0345 15.9755 17.0388 15.9971 17.0388C16.0188 17.0388 16.0402 17.0345 16.0602 17.0262C16.0802 17.0179 16.0983 17.0058 16.1136 16.9905L16.9895 16.1166C17.0048 16.1013 17.017 16.0832 17.0253 16.0632C17.0335 16.0432 17.0378 16.0217 17.0378 16.0001C17.0378 15.9785 17.0335 15.957 17.0253 15.937C17.017 15.917 17.0048 15.8989 16.9895 15.8836V15.8836ZM10.1752 10.1762C9.32345 11.026 8.19443 11.4941 6.99309 11.4941C5.79175 11.4941 4.66274 11.026 3.81095 10.1762C2.96117 9.32443 2.49309 8.19541 2.49309 6.99407C2.49309 5.79273 2.96117 4.6617 3.81095 3.81193C4.66274 2.96215 5.79175 2.49407 6.99309 2.49407C8.19443 2.49407 9.32546 2.96014 10.1752 3.81193C11.025 4.66371 11.4931 5.79273 11.4931 6.99407C11.4931 8.19541 11.025 9.32644 10.1752 10.1762Z" fill="black" fill-opacity="0.45"/>
</svg>
