<svg width="14" height="14" viewBox="0 0 14 14" fill="none" xmlns="http://www.w3.org/2000/svg">
<path d="M13.2145 12.354L9.15664 8.29619C9.78633 7.48213 10.127 6.48682 10.127 5.43994C10.127 4.18682 9.63789 3.01182 8.75352 2.12588C7.86914 1.23994 6.69102 0.752441 5.43945 0.752441C4.18789 0.752441 3.00977 1.2415 2.12539 2.12588C1.23945 3.01025 0.751953 4.18682 0.751953 5.43994C0.751953 6.6915 1.24102 7.86963 2.12539 8.754C3.00977 9.63994 4.18633 10.1274 5.43945 10.1274C6.48633 10.1274 7.48008 9.78682 8.29414 9.15869L12.352 13.2149C12.3639 13.2268 12.378 13.2363 12.3935 13.2427C12.4091 13.2492 12.4257 13.2525 12.4426 13.2525C12.4594 13.2525 12.4761 13.2492 12.4916 13.2427C12.5072 13.2363 12.5213 13.2268 12.5332 13.2149L13.2145 12.5353C13.2264 12.5234 13.2358 12.5092 13.2422 12.4937C13.2487 12.4781 13.252 12.4615 13.252 12.4446C13.252 12.4278 13.2487 12.4111 13.2422 12.3956C13.2358 12.38 13.2264 12.3659 13.2145 12.354V12.354ZM7.91445 7.91494C7.25195 8.57588 6.37383 8.93994 5.43945 8.93994C4.50508 8.93994 3.62695 8.57588 2.96445 7.91494C2.30352 7.25244 1.93945 6.37432 1.93945 5.43994C1.93945 4.50557 2.30352 3.62588 2.96445 2.96494C3.62695 2.304 4.50508 1.93994 5.43945 1.93994C6.37383 1.93994 7.25352 2.30244 7.91445 2.96494C8.57539 3.62744 8.93945 4.50557 8.93945 5.43994C8.93945 6.37432 8.57539 7.254 7.91445 7.91494Z" fill="black" fill-opacity="0.45"/>
</svg>
