<svg width="122" height="128" viewBox="0 0 122 128" fill="none" xmlns="http://www.w3.org/2000/svg">
<path d="M119.97 80.2638L110.613 72.2638C111.056 69.5495 111.284 66.7781 111.284 64.0067C111.284 61.2352 111.056 58.4638 110.613 55.7495L119.97 47.7495C120.676 47.1453 121.181 46.3406 121.418 45.4424C121.655 44.5441 121.614 43.5949 121.298 42.721L121.17 42.3495C118.594 35.1499 114.737 28.4757 109.784 22.6495L109.527 22.3495C108.926 21.6431 108.126 21.1353 107.23 20.8931C106.335 20.6508 105.388 20.6854 104.513 20.9924L92.8985 25.121C88.6128 21.6067 83.8271 18.8352 78.6556 16.8924L76.4128 4.74953C76.2436 3.83584 75.8004 2.99528 75.142 2.3395C74.4837 1.68371 73.6414 1.24377 72.7271 1.0781L72.3414 1.00667C64.8985 -0.336188 57.0699 -0.336188 49.6271 1.00667L49.2414 1.0781C48.327 1.24377 47.4847 1.68371 46.8264 2.3395C46.1681 2.99528 45.7249 3.83584 45.5556 4.74953L43.2985 16.9495C38.1683 18.8928 33.3909 21.6627 29.1557 25.1495L17.4557 20.9924C16.5809 20.683 15.6327 20.6471 14.737 20.8895C13.8414 21.1319 13.0407 21.6412 12.4414 22.3495L12.1842 22.6495C7.23774 28.4799 3.38102 35.1529 0.798509 42.3495L0.669937 42.721C0.0270804 44.5067 0.555652 46.5067 1.99851 47.7495L11.4699 55.8352C11.0271 58.521 10.8128 61.2638 10.8128 63.9924C10.8128 66.7352 11.0271 69.4781 11.4699 72.1495L1.99851 80.2352C1.29273 80.8394 0.787601 81.6442 0.55028 82.5424C0.312959 83.4407 0.354694 84.3899 0.669937 85.2638L0.798509 85.6352C3.38422 92.8352 7.2128 99.4781 12.1842 105.335L12.4414 105.635C13.0421 106.342 13.8429 106.849 14.738 107.092C15.6331 107.334 16.5806 107.299 17.4557 106.992L29.1557 102.835C33.4128 106.335 38.1699 109.107 43.2985 111.035L45.5556 123.235C45.7249 124.149 46.1681 124.99 46.8264 125.645C47.4847 126.301 48.327 126.741 49.2414 126.907L49.6271 126.978C57.1383 128.328 64.8301 128.328 72.3414 126.978L72.7271 126.907C73.6414 126.741 74.4837 126.301 75.142 125.645C75.8004 124.99 76.2436 124.149 76.4128 123.235L78.6556 111.092C83.825 109.155 88.6377 106.374 92.8985 102.864L104.513 106.992C105.388 107.302 106.336 107.338 107.231 107.095C108.127 106.853 108.928 106.344 109.527 105.635L109.784 105.335C114.756 99.4638 118.584 92.8352 121.17 85.6352L121.298 85.2638C121.941 83.5067 121.413 81.5067 119.97 80.2638V80.2638ZM100.47 57.4352C100.827 59.5924 101.013 61.8067 101.013 64.021C101.013 66.2352 100.827 68.4495 100.47 70.6067L99.5271 76.3352L110.199 85.4638C108.581 89.1908 106.539 92.7189 104.113 95.9781L90.8556 91.2781L86.3699 94.9638C82.9556 97.7638 79.1556 99.9638 75.0414 101.507L69.5985 103.55L67.0414 117.407C63.0066 117.864 58.9332 117.864 54.8985 117.407L52.3414 103.521L46.9414 101.45C42.8699 99.9067 39.0842 97.7067 35.6985 94.921L31.2128 91.221L17.8699 95.9638C15.4414 92.6924 13.4128 89.1638 11.7842 85.4495L22.5699 76.2352L21.6414 70.521C21.2985 68.3924 21.1128 66.1924 21.1128 64.021C21.1128 61.8352 21.2842 59.6495 21.6414 57.521L22.5699 51.8067L11.7842 42.5924C13.3985 38.8638 15.4414 35.3495 17.8699 32.0781L31.2128 36.821L35.6985 33.121C39.0842 30.3352 42.8699 28.1352 46.9414 26.5924L52.3556 24.5495L54.9128 10.6638C58.9271 10.2067 63.0271 10.2067 67.0557 10.6638L69.6128 24.521L75.0556 26.5638C79.1556 28.1067 82.9699 30.3067 86.3842 33.1067L90.8699 36.7924L104.127 32.0924C106.556 35.3638 108.584 38.8924 110.213 42.6067L99.5414 51.7352L100.47 57.4352ZM60.9985 37.4495C47.1128 37.4495 35.8557 48.7067 35.8557 62.5924C35.8557 76.4781 47.1128 87.7352 60.9985 87.7352C74.8842 87.7352 86.1414 76.4781 86.1414 62.5924C86.1414 48.7067 74.8842 37.4495 60.9985 37.4495ZM72.3128 73.9067C70.8288 75.3949 69.0652 76.5751 67.1235 77.3792C65.1818 78.1834 63.1002 78.5957 60.9985 78.5924C56.7271 78.5924 52.7128 76.921 49.6842 73.9067C48.196 72.4227 47.0158 70.6591 46.2117 68.7174C45.4075 66.7756 44.9952 64.6941 44.9985 62.5924C44.9985 58.321 46.6699 54.3067 49.6842 51.2781C52.7128 48.2495 56.7271 46.5924 60.9985 46.5924C65.2699 46.5924 69.2842 48.2495 72.3128 51.2781C73.801 52.7621 74.9812 54.5257 75.7853 56.4674C76.5895 58.4091 77.0018 60.4907 76.9985 62.5924C76.9985 66.8638 75.3271 70.8781 72.3128 73.9067Z" fill="black" fill-opacity="0.85"/>
</svg>
