<svg width="32" height="32" viewBox="0 0 32 32" fill="none" xmlns="http://www.w3.org/2000/svg">
<path d="M31.7032 20.066L29.2908 18.066C29.405 17.3875 29.4639 16.6946 29.4639 16.0018C29.4639 15.3089 29.405 14.616 29.2908 13.9375L31.7032 11.9375C31.8851 11.7864 32.0154 11.5852 32.0766 11.3607C32.1377 11.1361 32.127 10.8988 32.0457 10.6803L32.0126 10.5875C31.3484 8.78757 30.354 7.11903 29.0772 5.66247L29.0109 5.58747C28.856 5.41087 28.6496 5.28392 28.4188 5.22336C28.188 5.16279 27.9437 5.17145 27.7181 5.24819L24.7238 6.28033C23.6189 5.40176 22.3851 4.7089 21.0518 4.22319L20.4736 1.18747C20.43 0.959053 20.3157 0.748911 20.146 0.584965C19.9763 0.42102 19.7591 0.311033 19.5234 0.269616L19.4239 0.251759C17.5051 -0.0839553 15.4868 -0.0839553 13.5679 0.251759L13.4685 0.269616C13.2328 0.311033 13.0156 0.42102 12.8459 0.584965C12.6761 0.748911 12.5619 0.959053 12.5183 1.18747L11.9363 4.23747C10.6137 4.72329 9.38203 5.41578 8.29013 6.28747L5.27372 5.24819C5.04819 5.17084 4.80373 5.16187 4.57282 5.22247C4.34191 5.28308 4.13549 5.41038 3.98098 5.58747L3.91468 5.66247C2.63942 7.12006 1.64511 8.78832 0.979303 10.5875L0.946156 10.6803C0.780419 11.1268 0.916692 11.6268 1.28868 11.9375L3.73053 13.9589C3.61636 14.6303 3.56111 15.316 3.56111 15.9982C3.56111 16.6839 3.61636 17.3696 3.73053 18.0375L1.28868 20.0589C1.10672 20.21 0.976491 20.4111 0.915307 20.6357C0.854122 20.8603 0.864882 21.0976 0.946156 21.316L0.979303 21.4089C1.64593 23.2089 2.63299 24.8696 3.91468 26.3339L3.98098 26.4089C4.13586 26.5855 4.3423 26.7125 4.57307 26.773C4.80384 26.8336 5.04812 26.8249 5.27372 26.7482L8.29013 25.7089C9.38767 26.5839 10.6141 27.2768 11.9363 27.7589L12.5183 30.8089C12.5619 31.0373 12.6761 31.2475 12.8459 31.4114C13.0156 31.5754 13.2328 31.6853 13.4685 31.7268L13.5679 31.7446C15.5044 32.0821 17.4875 32.0821 19.4239 31.7446L19.5234 31.7268C19.7591 31.6853 19.9763 31.5754 20.146 31.4114C20.3157 31.2475 20.43 31.0373 20.4736 30.8089L21.0518 27.7732C22.3846 27.2887 23.6253 26.5936 24.7238 25.716L27.7181 26.7482C27.9437 26.8255 28.1881 26.8345 28.419 26.7739C28.65 26.7133 28.8564 26.586 29.0109 26.4089L29.0772 26.3339C30.3589 24.866 31.3459 23.2089 32.0126 21.4089L32.0457 21.316C32.2114 20.8768 32.0752 20.3768 31.7032 20.066V20.066ZM26.6758 14.3589C26.7679 14.8982 26.8158 15.4518 26.8158 16.0053C26.8158 16.5589 26.7679 17.1125 26.6758 17.6518L26.4328 19.0839L29.184 21.366C28.7669 22.2978 28.2404 23.1798 27.615 23.9946L24.1972 22.8196L23.0407 23.741C22.1604 24.441 21.1808 24.991 20.12 25.3768L18.7168 25.8875L18.0575 29.3518C17.0173 29.466 15.9672 29.466 14.927 29.3518L14.2677 25.8803L12.8755 25.3625C11.8258 24.9768 10.8498 24.4268 9.97696 23.7303L8.82049 22.8053L5.38053 23.991C4.75441 23.1732 4.23142 22.291 3.81156 21.3625L6.59225 19.0589L6.35285 17.6303C6.26446 17.0982 6.21658 16.5482 6.21658 16.0053C6.21658 15.4589 6.26078 14.9125 6.35285 14.3803L6.59225 12.9518L3.81156 10.6482C4.22774 9.71604 4.75441 8.83747 5.38053 8.01962L8.82049 9.20533L9.97696 8.28033C10.8498 7.5839 11.8258 7.0339 12.8755 6.64819L14.2714 6.13747L14.9306 2.66604C15.9656 2.55176 17.0226 2.55176 18.0612 2.66604L18.7205 6.13033L20.1237 6.64104C21.1808 7.02676 22.1641 7.57676 23.0444 8.27676L24.2008 9.19819L27.6187 8.02319C28.2448 8.84104 28.7678 9.72319 29.1877 10.6518L26.4364 12.9339L26.6758 14.3589ZM16.4996 9.36247C12.9197 9.36247 10.0175 12.1768 10.0175 15.6482C10.0175 19.1196 12.9197 21.9339 16.4996 21.9339C20.0795 21.9339 22.9818 19.1196 22.9818 15.6482C22.9818 12.1768 20.0795 9.36247 16.4996 9.36247ZM19.4166 18.4768C19.034 18.8488 18.5793 19.1439 18.0787 19.3449C17.5781 19.5459 17.0415 19.649 16.4996 19.6482C15.3984 19.6482 14.3635 19.2303 13.5826 18.4768C13.199 18.1058 12.8947 17.6649 12.6874 17.1794C12.4801 16.694 12.3738 16.1736 12.3746 15.6482C12.3746 14.5803 12.8055 13.5768 13.5826 12.8196C14.3635 12.0625 15.3984 11.6482 16.4996 11.6482C17.6008 11.6482 18.6358 12.0625 19.4166 12.8196C19.8003 13.1906 20.1045 13.6315 20.3118 14.1169C20.5192 14.6024 20.6255 15.1228 20.6246 15.6482C20.6246 16.716 20.1937 17.7196 19.4166 18.4768Z" fill="black" fill-opacity="0.85"/>
</svg>
