<svg width="46" height="48" viewBox="0 0 46 48" fill="none" xmlns="http://www.w3.org/2000/svg">
<path d="M45.1137 30.099L41.6048 27.099C41.7709 26.0811 41.8566 25.0419 41.8566 24.0026C41.8566 22.9633 41.7709 21.924 41.6048 20.9061L45.1137 17.9061C45.3784 17.6796 45.5678 17.3778 45.6568 17.041C45.7458 16.7041 45.7302 16.3482 45.6119 16.0204L45.5637 15.8811C44.5977 13.1813 43.1512 10.6785 41.2941 8.49365L41.1977 8.38115C40.9724 8.11625 40.6721 7.92583 40.3364 7.83498C40.0008 7.74412 39.6454 7.75711 39.3173 7.87222L34.9619 9.42043C33.3548 8.10258 31.5602 7.06329 29.6209 6.33472L28.7798 1.78115C28.7163 1.43852 28.5501 1.1233 28.3033 0.877387C28.0564 0.631469 27.7405 0.466488 27.3977 0.404363L27.253 0.377577C24.4619 -0.125994 21.5262 -0.125994 18.7352 0.377577L18.5905 0.404363C18.2476 0.466488 17.9318 0.631469 17.6849 0.877387C17.438 1.1233 17.2718 1.43852 17.2084 1.78115L16.3619 6.35615C14.4381 7.08487 12.6466 8.12361 11.0584 9.43115L6.67087 7.87222C6.34283 7.7562 5.98725 7.74274 5.65138 7.83365C5.31551 7.92455 5.01525 8.11551 4.79051 8.38115L4.69408 8.49365C2.83915 10.68 1.39288 13.1824 0.424441 15.8811L0.376227 16.0204C0.135155 16.6901 0.33337 17.4401 0.874441 17.9061L4.42623 20.9383C4.26016 21.9454 4.1798 22.974 4.1798 23.9972C4.1798 25.0258 4.26016 26.0544 4.42623 27.0562L0.874441 30.0883C0.609775 30.3149 0.42035 30.6166 0.331355 30.9535C0.24236 31.2903 0.25801 31.6463 0.376227 31.974L0.424441 32.1133C1.39408 34.8133 2.8298 37.3044 4.69408 39.5008L4.79051 39.6133C5.0158 39.8782 5.31607 40.0686 5.65174 40.1595C5.98741 40.2503 6.34273 40.2373 6.67087 40.1222L11.0584 38.5633C12.6548 39.8758 14.4387 40.9151 16.3619 41.6383L17.2084 46.2133C17.2718 46.5559 17.438 46.8711 17.6849 47.1171C17.9318 47.363 18.2476 47.528 18.5905 47.5901L18.7352 47.6169C21.5519 48.1231 24.4363 48.1231 27.253 47.6169L27.3977 47.5901C27.7405 47.528 28.0564 47.363 28.3033 47.1171C28.5501 46.8711 28.7163 46.5559 28.7798 46.2133L29.6209 41.6597C31.5594 40.9331 33.3641 39.8904 34.9619 38.574L39.3173 40.1222C39.6453 40.2382 40.0009 40.2517 40.3368 40.1608C40.6727 40.0699 40.9729 39.8789 41.1977 39.6133L41.2941 39.5008C43.1584 37.299 44.5941 34.8133 45.5637 32.1133L45.6119 31.974C45.853 31.3151 45.6548 30.5651 45.1137 30.099V30.099ZM37.8012 21.5383C37.9352 22.3472 38.0048 23.1776 38.0048 24.0079C38.0048 24.8383 37.9352 25.6686 37.8012 26.4776L37.4477 28.6258L41.4494 32.049C40.8428 33.4466 40.077 34.7697 39.1673 35.9919L34.1959 34.2294L32.5137 35.6115C31.2334 36.6615 29.8084 37.4865 28.2655 38.0651L26.2244 38.8312L25.2655 44.0276C23.7525 44.199 22.225 44.199 20.7119 44.0276L19.753 38.8204L17.728 38.0437C16.2012 37.4651 14.7816 36.6401 13.5119 35.5954L11.8298 34.2079L6.82623 35.9865C5.91551 34.7597 5.1548 33.4365 4.54408 32.0437L8.58873 28.5883L8.24051 26.4454C8.11194 25.6472 8.0423 24.8222 8.0423 24.0079C8.0423 23.1883 8.10658 22.3686 8.24051 21.5704L8.58873 19.4276L4.54408 15.9722C5.14944 14.574 5.91551 13.2561 6.82623 12.0294L11.8298 13.8079L13.5119 12.4204C14.7816 11.3758 16.2012 10.5508 17.728 9.97222L19.7584 9.20615L20.7173 3.99901C22.2227 3.82758 23.7602 3.82758 25.2709 3.99901L26.2298 9.19543L28.2709 9.96151C29.8084 10.5401 31.2387 11.3651 32.5191 12.4151L34.2012 13.7972L39.1727 12.0347C40.0834 13.2615 40.8441 14.5847 41.4548 15.9776L37.453 19.4008L37.8012 21.5383ZM22.9994 14.0436C17.7923 14.0436 13.5709 18.2651 13.5709 23.4722C13.5709 28.6794 17.7923 32.9008 22.9994 32.9008C28.2066 32.9008 32.428 28.6794 32.428 23.4722C32.428 18.2651 28.2066 14.0436 22.9994 14.0436ZM27.2423 27.7151C26.6858 28.2732 26.0245 28.7157 25.2963 29.0173C24.5682 29.3188 23.7876 29.4734 22.9994 29.4722C21.3977 29.4722 19.8923 28.8454 18.7566 27.7151C18.1985 27.1586 17.7559 26.4972 17.4544 25.7691C17.1528 25.0409 16.9982 24.2603 16.9994 23.4722C16.9994 21.8704 17.6262 20.3651 18.7566 19.2294C19.8923 18.0936 21.3977 17.4722 22.9994 17.4722C24.6012 17.4722 26.1066 18.0936 27.2423 19.2294C27.8004 19.7859 28.2429 20.4472 28.5445 21.1754C28.8461 21.9035 29.0007 22.6841 28.9994 23.4722C28.9994 25.074 28.3727 26.5794 27.2423 27.7151Z" fill="black" fill-opacity="0.85"/>
</svg>
