<svg width="62" height="64" viewBox="0 0 62 64" fill="none" xmlns="http://www.w3.org/2000/svg">
<path d="M60.485 40.132L55.8064 36.132C56.0278 34.7748 56.1421 33.3891 56.1421 32.0034C56.1421 30.6177 56.0278 29.232 55.8064 27.8748L60.485 23.8748C60.8379 23.5727 61.0904 23.1704 61.2091 22.7212C61.3277 22.2721 61.3069 21.7975 61.1492 21.3605L61.085 21.1748C59.797 17.575 57.8683 14.2379 55.3921 11.3248L55.2635 11.1748C54.9631 10.8216 54.5628 10.5677 54.1152 10.4466C53.6677 10.3255 53.1939 10.3428 52.7564 10.4963L46.9493 12.5605C44.8064 10.8034 42.4135 9.41768 39.8278 8.44625L38.7064 2.37482C38.6218 1.91798 38.4002 1.4977 38.071 1.16981C37.7418 0.841918 37.3207 0.621944 36.8635 0.53911L36.6707 0.503396C32.9493 -0.168033 29.035 -0.168033 25.3135 0.503396L25.1207 0.53911C24.6635 0.621944 24.2424 0.841918 23.9132 1.16981C23.584 1.4977 23.3624 1.91798 23.2778 2.37482L22.1493 8.47482C19.5842 9.44646 17.1954 10.8314 15.0778 12.5748L9.22783 10.4963C8.79044 10.3416 8.31633 10.3236 7.8685 10.4448C7.42068 10.566 7.02034 10.8206 6.72068 11.1748L6.59211 11.3248C4.11887 14.24 2.19051 17.5765 0.899255 21.1748L0.834969 21.3605C0.51354 22.2534 0.777826 23.2534 1.49925 23.8748L6.23497 27.9177C6.01354 29.2605 5.9064 30.632 5.9064 31.9963C5.9064 33.3677 6.01354 34.7391 6.23497 36.0748L1.49925 40.1177C1.14637 40.4198 0.893801 40.8221 0.77514 41.2713C0.65648 41.7204 0.677347 42.195 0.834969 42.632L0.899255 42.8177C2.19211 46.4177 4.1064 49.7391 6.59211 52.6677L6.72068 52.8177C7.02107 53.1709 7.42143 53.4248 7.86898 53.5459C8.31654 53.6671 8.7903 53.6497 9.22783 53.4963L15.0778 51.4177C17.2064 53.1677 19.585 54.5534 22.1493 55.5177L23.2778 61.6177C23.3624 62.0745 23.584 62.4948 23.9132 62.8227C24.2424 63.1506 24.6635 63.3706 25.1207 63.4534L25.3135 63.4891C29.0692 64.1641 32.9151 64.1641 36.6707 63.4891L36.8635 63.4534C37.3207 63.3706 37.7418 63.1506 38.071 62.8227C38.4002 62.4948 38.6218 62.0745 38.7064 61.6177L39.8278 55.5463C42.4125 54.5774 44.8189 53.1871 46.9493 51.432L52.7564 53.4963C53.1938 53.651 53.6679 53.6689 54.1157 53.5477C54.5635 53.4265 54.9639 53.1719 55.2635 52.8177L55.3921 52.6677C57.8778 49.732 59.7921 46.4177 61.085 42.8177L61.1492 42.632C61.4707 41.7534 61.2064 40.7534 60.485 40.132V40.132ZM50.735 28.7177C50.9135 29.7963 51.0064 30.9034 51.0064 32.0105C51.0064 33.1177 50.9135 34.2248 50.735 35.3034L50.2635 38.1677L55.5993 42.732C54.7904 44.5955 53.7693 46.3595 52.5564 47.9891L45.9278 45.6391L43.685 47.482C41.9778 48.882 40.0778 49.982 38.0207 50.7534L35.2993 51.7748L34.0207 58.7034C32.0033 58.932 29.9666 58.932 27.9493 58.7034L26.6707 51.7605L23.9707 50.7248C21.935 49.9534 20.0421 48.8534 18.3493 47.4605L16.1064 45.6105L9.43497 47.982C8.22068 46.3463 7.2064 44.582 6.39211 42.7248L11.785 38.1177L11.3207 35.2605C11.1493 34.1963 11.0564 33.0963 11.0564 32.0105C11.0564 30.9177 11.1421 29.8248 11.3207 28.7605L11.785 25.9034L6.39211 21.2963C7.19925 19.432 8.22068 17.6748 9.43497 16.0391L16.1064 18.4105L18.3493 16.5605C20.0421 15.1677 21.935 14.0677 23.9707 13.2963L26.6778 12.2748L27.9564 5.33197C29.9635 5.1034 32.0135 5.1034 34.0278 5.33197L35.3064 12.2605L38.0278 13.282C40.0778 14.0534 41.985 15.1534 43.6921 16.5534L45.935 18.3963L52.5635 16.0463C53.7778 17.682 54.7921 19.4463 55.6064 21.3034L50.2707 25.8677L50.735 28.7177ZM30.9993 18.7248C24.0564 18.7248 18.4278 24.3534 18.4278 31.2963C18.4278 38.2391 24.0564 43.8677 30.9993 43.8677C37.9421 43.8677 43.5707 38.2391 43.5707 31.2963C43.5707 24.3534 37.9421 18.7248 30.9993 18.7248ZM36.6564 36.9534C35.9144 37.6975 35.0326 38.2876 34.0617 38.6897C33.0909 39.0917 32.0501 39.2979 30.9993 39.2963C28.8635 39.2963 26.8564 38.4605 25.3421 36.9534C24.598 36.2114 24.0079 35.3296 23.6058 34.3587C23.2038 33.3879 22.9976 32.3471 22.9993 31.2963C22.9993 29.1605 23.835 27.1534 25.3421 25.6391C26.8564 24.1248 28.8635 23.2963 30.9993 23.2963C33.135 23.2963 35.1421 24.1248 36.6564 25.6391C37.4005 26.3811 37.9906 27.2629 38.3927 28.2338C38.7947 29.2046 39.0009 30.2454 38.9993 31.2963C38.9993 33.432 38.1635 35.4391 36.6564 36.9534Z" fill="black" fill-opacity="0.85"/>
</svg>
