<svg width="24" height="24" viewBox="0 0 24 24" fill="none" xmlns="http://www.w3.org/2000/svg">
<path d="M23.0569 15.0496L21.3024 13.5496C21.3854 13.0406 21.4283 12.521 21.4283 12.0013C21.4283 11.4817 21.3854 10.9621 21.3024 10.4531L23.0569 8.95314C23.1892 8.83985 23.2839 8.68896 23.3284 8.52054C23.3729 8.35212 23.3651 8.17414 23.306 8.01028L23.2819 7.94064C22.7989 6.59071 22.0756 5.3393 21.147 4.24689L21.0988 4.19064C20.9862 4.05819 20.8361 3.96297 20.6682 3.91755C20.5004 3.87212 20.3227 3.87862 20.1586 3.93617L17.981 4.71028C17.1774 4.05135 16.2801 3.53171 15.3104 3.16742L14.8899 0.890635C14.8582 0.71932 14.7751 0.561713 14.6516 0.438755C14.5282 0.315796 14.3703 0.233305 14.1988 0.202243L14.1265 0.18885C12.731 -0.062936 11.2631 -0.062936 9.86758 0.18885L9.79526 0.202243C9.62382 0.233305 9.46589 0.315796 9.34245 0.438755C9.21902 0.561713 9.13591 0.71932 9.10419 0.890635L8.68097 3.17814C7.71907 3.5425 6.82329 4.06186 6.02919 4.71564L3.83543 3.93617C3.67141 3.87816 3.49362 3.87143 3.32569 3.91688C3.15775 3.96234 3.00763 4.05782 2.89526 4.19064L2.84704 4.24689C1.91958 5.34007 1.19644 6.59127 0.71222 7.94064L0.688113 8.01028C0.567578 8.3451 0.666685 8.7201 0.937221 8.95314L2.71311 10.4692C2.63008 10.9728 2.5899 11.4871 2.5899 11.9987C2.5899 12.513 2.63008 13.0272 2.71311 13.5281L0.937221 15.0442C0.804888 15.1575 0.710175 15.3084 0.665678 15.4768C0.62118 15.6452 0.629005 15.8232 0.688113 15.9871L0.71222 16.0567C1.19704 17.4067 1.9149 18.6522 2.84704 19.7505L2.89526 19.8067C3.0079 19.9392 3.15803 20.0344 3.32587 20.0798C3.4937 20.1252 3.67136 20.1187 3.83543 20.0612L6.02919 19.2817C6.8274 19.938 7.71936 20.4576 8.68097 20.8192L9.10419 23.1067C9.13591 23.278 9.21902 23.4356 9.34245 23.5586C9.46589 23.6815 9.62382 23.764 9.79526 23.7951L9.86758 23.8085C11.2759 24.0616 12.7181 24.0616 14.1265 23.8085L14.1988 23.7951C14.3703 23.764 14.5282 23.6815 14.6516 23.5586C14.7751 23.4356 14.8582 23.278 14.8899 23.1067L15.3104 20.8299C16.2797 20.4666 17.1821 19.9453 17.981 19.2871L20.1586 20.0612C20.3227 20.1192 20.5005 20.1259 20.6684 20.0805C20.8363 20.035 20.9865 19.9395 21.0988 19.8067L21.147 19.7505C22.0792 18.6496 22.797 17.4067 23.2819 16.0567L23.306 15.9871C23.4265 15.6576 23.3274 15.2826 23.0569 15.0496V15.0496ZM19.4006 10.7692C19.4676 11.1737 19.5024 11.5888 19.5024 12.004C19.5024 12.4192 19.4676 12.8344 19.4006 13.2388L19.2238 14.313L21.2247 16.0246C20.9214 16.7234 20.5385 17.3849 20.0837 17.996L17.5979 17.1147L16.7569 17.8058C16.1167 18.3308 15.4042 18.7433 14.6328 19.0326L13.6122 19.4156L13.1328 22.0139C12.3762 22.0996 11.6125 22.0996 10.856 22.0139L10.3765 19.4103L9.36401 19.0219C8.60061 18.7326 7.89079 18.3201 7.25597 17.7978L6.4149 17.104L3.91311 17.9933C3.45776 17.3799 3.0774 16.7183 2.77204 16.0219L4.79436 14.2942L4.62026 13.2228C4.55597 12.8237 4.52115 12.4112 4.52115 12.004C4.52115 11.5942 4.55329 11.1844 4.62026 10.7853L4.79436 9.71385L2.77204 7.98617C3.07472 7.28706 3.45776 6.62814 3.91311 6.01474L6.4149 6.90403L7.25597 6.21028C7.89079 5.68796 8.60061 5.27546 9.36401 4.98617L10.3792 4.60314L10.8586 1.99956C11.6113 1.91385 12.3801 1.91385 13.1354 1.99956L13.6149 4.59778L14.6354 4.98081C15.4042 5.2701 16.1194 5.6826 16.7595 6.2076L17.6006 6.89867L20.0863 6.01742C20.5417 6.63081 20.922 7.29242 21.2274 7.98885L19.2265 9.70046L19.4006 10.7692ZM11.9997 7.02189C9.39615 7.02189 7.28544 9.1326 7.28544 11.7362C7.28544 14.3397 9.39615 16.4505 11.9997 16.4505C14.6033 16.4505 16.714 14.3397 16.714 11.7362C16.714 9.1326 14.6033 7.02189 11.9997 7.02189ZM14.1212 13.8576C13.8429 14.1366 13.5122 14.3579 13.1482 14.5087C12.7841 14.6595 12.3938 14.7368 11.9997 14.7362C11.1988 14.7362 10.4461 14.4228 9.87829 13.8576C9.59925 13.5794 9.37797 13.2487 9.22719 12.8846C9.07641 12.5205 8.99911 12.1302 8.99972 11.7362C8.99972 10.9353 9.31311 10.1826 9.87829 9.61474C10.4461 9.04689 11.1988 8.73617 11.9997 8.73617C12.8006 8.73617 13.5533 9.04689 14.1212 9.61474C14.4002 9.89299 14.6215 10.2237 14.7723 10.5877C14.923 10.9518 15.0003 11.3421 14.9997 11.7362C14.9997 12.5371 14.6863 13.2897 14.1212 13.8576Z" fill="black" fill-opacity="0.85"/>
</svg>
