<svg width="16" height="16" viewBox="0 0 16 16" fill="none" xmlns="http://www.w3.org/2000/svg">
<path d="M15.3712 10.0331L14.2016 9.03308C14.257 8.6938 14.2855 8.34737 14.2855 8.00094C14.2855 7.65451 14.257 7.30808 14.2016 6.9688L15.3712 5.9688C15.4595 5.89327 15.5226 5.79268 15.5523 5.6804C15.5819 5.56812 15.5767 5.44947 15.5373 5.34023L15.5212 5.2938C15.1992 4.39384 14.7171 3.55958 14.098 2.8313L14.0659 2.7938C13.9908 2.7055 13.8907 2.64202 13.7788 2.61174C13.6669 2.58146 13.5485 2.58578 13.4391 2.62415L11.9873 3.14023C11.4516 2.70094 10.8534 2.35451 10.207 2.11166L9.9266 0.593798C9.90545 0.479587 9.85004 0.374516 9.76775 0.292544C9.68546 0.210571 9.58018 0.155578 9.46588 0.134869L9.41767 0.125941C8.48731 -0.0419166 7.50874 -0.0419166 6.57838 0.125941L6.53017 0.134869C6.41588 0.155578 6.31059 0.210571 6.2283 0.292544C6.14601 0.374516 6.09061 0.479587 6.06946 0.593798L5.78731 2.1188C5.14604 2.36171 4.54886 2.70795 4.01946 3.1438L2.55696 2.62415C2.44761 2.58548 2.32908 2.581 2.21713 2.6113C2.10517 2.6416 2.00508 2.70525 1.93017 2.7938L1.89803 2.8313C1.27972 3.56009 0.797628 4.39422 0.474814 5.2938L0.458742 5.34023C0.378385 5.56344 0.444457 5.81344 0.624814 5.9688L1.80874 6.97951C1.75339 7.31523 1.7266 7.65808 1.7266 7.99915C1.7266 8.34201 1.75339 8.68487 1.80874 9.0188L0.624814 10.0295C0.536592 10.105 0.47345 10.2056 0.443785 10.3179C0.41412 10.4302 0.419337 10.5488 0.458742 10.6581L0.474814 10.7045C0.798028 11.6045 1.2766 12.4349 1.89803 13.167L1.93017 13.2045C2.00527 13.2928 2.10536 13.3563 2.21725 13.3866C2.32914 13.4169 2.44758 13.4125 2.55696 13.3742L4.01946 12.8545C4.5516 13.292 5.14624 13.6384 5.78731 13.8795L6.06946 15.4045C6.09061 15.5187 6.14601 15.6238 6.2283 15.7058C6.31059 15.7877 6.41588 15.8427 6.53017 15.8634L6.57838 15.8724C7.51729 16.0411 8.47876 16.0411 9.41767 15.8724L9.46588 15.8634C9.58018 15.8427 9.68546 15.7877 9.76775 15.7058C9.85004 15.6238 9.90545 15.5187 9.9266 15.4045L10.207 13.8867C10.8531 13.6444 11.4547 13.2969 11.9873 12.8581L13.4391 13.3742C13.5484 13.4128 13.667 13.4173 13.7789 13.387C13.8909 13.3567 13.991 13.2931 14.0659 13.2045L14.098 13.167C14.7195 12.4331 15.198 11.6045 15.5212 10.7045L15.5373 10.6581C15.6177 10.4384 15.5516 10.1884 15.3712 10.0331V10.0331ZM12.9337 7.17951C12.9784 7.44915 13.0016 7.72594 13.0016 8.00273C13.0016 8.27951 12.9784 8.5563 12.9337 8.82594L12.8159 9.54201L14.1498 10.6831C13.9476 11.149 13.6923 11.59 13.3891 11.9974L11.732 11.4099L11.1712 11.8706C10.7445 12.2206 10.2695 12.4956 9.75517 12.6884L9.07481 12.9438L8.75517 14.6759C8.25083 14.7331 7.74165 14.7331 7.23731 14.6759L6.91767 12.9402L6.24267 12.6813C5.73374 12.4884 5.26053 12.2134 4.83731 11.8652L4.2766 11.4027L2.60874 11.9956C2.30517 11.5867 2.0516 11.1456 1.84803 10.6813L3.19624 9.52951L3.08017 8.81523C3.03731 8.54916 3.0141 8.27416 3.0141 8.00273C3.0141 7.72951 3.03553 7.4563 3.08017 7.19023L3.19624 6.47594L1.84803 5.32415C2.04981 4.85808 2.30517 4.4188 2.60874 4.00987L4.2766 4.60273L4.83731 4.14023C5.26053 3.79201 5.73374 3.51701 6.24267 3.32415L6.91946 3.0688L7.2391 1.33308C7.74088 1.27594 8.25338 1.27594 8.75696 1.33308L9.0766 3.06523L9.75696 3.32058C10.2695 3.51344 10.7462 3.78844 11.173 4.13844L11.7337 4.59915L13.3909 4.01165C13.6945 4.42058 13.948 4.86166 14.1516 5.32594L12.8177 6.46701L12.9337 7.17951ZM7.99981 4.6813C6.2641 4.6813 4.85696 6.08844 4.85696 7.82416C4.85696 9.55987 6.2641 10.967 7.99981 10.967C9.73553 10.967 11.1427 9.55987 11.1427 7.82416C11.1427 6.08844 9.73553 4.6813 7.99981 4.6813ZM9.4141 9.23844C9.2286 9.42447 9.00815 9.57199 8.76544 9.67251C8.52272 9.77303 8.26252 9.82456 7.99981 9.82416C7.46588 9.82416 6.9641 9.61523 6.58553 9.23844C6.3995 9.05294 6.25198 8.8325 6.15146 8.58978C6.05094 8.34706 5.9994 8.08686 5.99981 7.82416C5.99981 7.29023 6.20874 6.78844 6.58553 6.40987C6.9641 6.0313 7.46588 5.82415 7.99981 5.82415C8.53374 5.82415 9.03553 6.0313 9.4141 6.40987C9.60013 6.59537 9.74765 6.81581 9.84817 7.05853C9.94869 7.30125 10.0002 7.56145 9.99981 7.82416C9.99981 8.35808 9.79088 8.85987 9.4141 9.23844Z" fill="black" fill-opacity="0.85"/>
</svg>
