<svg width="14" height="14" viewBox="0 0 14 14" fill="none" xmlns="http://www.w3.org/2000/svg">
<path d="M13.4498 8.77886L12.4264 7.90386C12.4748 7.60699 12.4998 7.30386 12.4998 7.00074C12.4998 6.69761 12.4748 6.39449 12.4264 6.09761L13.4498 5.22261C13.527 5.15653 13.5823 5.06851 13.6082 4.97026C13.6342 4.87202 13.6296 4.7682 13.5951 4.67261L13.5811 4.63199C13.2993 3.84453 12.8774 3.11454 12.3358 2.4773L12.3076 2.44449C12.2419 2.36722 12.1544 2.31168 12.0565 2.28518C11.9586 2.25869 11.8549 2.26247 11.7592 2.29605L10.4889 2.74761C10.0201 2.36324 9.49671 2.06011 8.93108 1.84761L8.68577 0.519485C8.66726 0.419551 8.61879 0.327614 8.54678 0.255888C8.47478 0.184162 8.38265 0.136043 8.28265 0.117923L8.24046 0.11011C7.4264 -0.0367645 6.57015 -0.0367645 5.75608 0.11011L5.7139 0.117923C5.61389 0.136043 5.52177 0.184162 5.44976 0.255888C5.37776 0.327614 5.32928 0.419551 5.31077 0.519485L5.0639 1.85386C4.50278 2.0664 3.98025 2.36937 3.51702 2.75074L2.23733 2.29605C2.14166 2.26221 2.03794 2.25828 1.93998 2.2848C1.84202 2.31131 1.75445 2.36701 1.6889 2.44449L1.66077 2.4773C1.11975 3.11499 0.697922 3.84486 0.415459 4.63199L0.401397 4.67261C0.331084 4.86792 0.388897 5.08667 0.546709 5.22261L1.58265 6.10699C1.53421 6.40074 1.51077 6.70074 1.51077 6.99917C1.51077 7.29917 1.53421 7.59917 1.58265 7.89136L0.546709 8.77574C0.469515 8.84182 0.414266 8.92984 0.388309 9.02808C0.362352 9.12633 0.366917 9.23015 0.401397 9.32574L0.415459 9.36636C0.698272 10.1539 1.11702 10.8804 1.66077 11.521L1.6889 11.5539C1.75461 11.6311 1.84218 11.6867 1.94009 11.7132C2.03799 11.7397 2.14163 11.7359 2.23733 11.7023L3.51702 11.2476C3.98265 11.6304 4.50296 11.9335 5.0639 12.1445L5.31077 13.4789C5.32928 13.5788 5.37776 13.6707 5.44976 13.7425C5.52177 13.8142 5.61389 13.8623 5.7139 13.8804L5.75608 13.8882C6.57763 14.0359 7.41892 14.0359 8.24046 13.8882L8.28265 13.8804C8.38265 13.8623 8.47478 13.8142 8.54678 13.7425C8.61879 13.6707 8.66726 13.5788 8.68577 13.4789L8.93108 12.1507C9.49648 11.9388 10.0229 11.6347 10.4889 11.2507L11.7592 11.7023C11.8549 11.7361 11.9586 11.7401 12.0566 11.7135C12.1545 11.687 12.2421 11.6313 12.3076 11.5539L12.3358 11.521C12.8795 10.8789 13.2983 10.1539 13.5811 9.36636L13.5951 9.32574C13.6655 9.13355 13.6076 8.9148 13.4498 8.77886V8.77886ZM11.317 6.28199C11.3561 6.51792 11.3764 6.76011 11.3764 7.0023C11.3764 7.24449 11.3561 7.48667 11.317 7.72261L11.2139 8.34917L12.3811 9.34761C12.2041 9.75525 11.9808 10.1411 11.7155 10.4976L10.2655 9.98355L9.77483 10.3867C9.4014 10.6929 8.98577 10.9335 8.53577 11.1023L7.94046 11.3257L7.66077 12.8414C7.21947 12.8914 6.77394 12.8914 6.33265 12.8414L6.05296 11.3226L5.46233 11.096C5.01702 10.9273 4.60296 10.6867 4.23265 10.382L3.74202 9.9773L2.28265 10.496C2.01702 10.1382 1.79515 9.7523 1.61702 9.34605L2.79671 8.33824L2.69515 7.71324C2.65765 7.48042 2.63733 7.2398 2.63733 7.0023C2.63733 6.76324 2.65608 6.52417 2.69515 6.29136L2.79671 5.66636L1.61702 4.65855C1.79358 4.25074 2.01702 3.86636 2.28265 3.50855L3.74202 4.0273L4.23265 3.62261C4.60296 3.31792 5.01702 3.0773 5.46233 2.90855L6.05452 2.68511L6.33421 1.16636C6.77327 1.11636 7.22171 1.11636 7.66233 1.16636L7.94202 2.68199L8.53733 2.90542C8.98577 3.07417 9.40296 3.3148 9.7764 3.62105L10.267 4.02417L11.717 3.51011C11.9826 3.86792 12.2045 4.25386 12.3826 4.66011L11.2155 5.65855L11.317 6.28199ZM6.99983 4.09605C5.48108 4.09605 4.24983 5.3273 4.24983 6.84605C4.24983 8.3648 5.48108 9.59605 6.99983 9.59605C8.51858 9.59605 9.74983 8.3648 9.74983 6.84605C9.74983 5.3273 8.51858 4.09605 6.99983 4.09605ZM8.23733 8.08355C8.07502 8.24632 7.88213 8.3754 7.66975 8.46336C7.45738 8.55131 7.2297 8.59641 6.99983 8.59605C6.53265 8.59605 6.09358 8.41324 5.76233 8.08355C5.59956 7.92124 5.47048 7.72835 5.38253 7.51597C5.29457 7.30359 5.24948 7.07592 5.24983 6.84605C5.24983 6.37886 5.43265 5.9398 5.76233 5.60855C6.09358 5.2773 6.53265 5.09605 6.99983 5.09605C7.46702 5.09605 7.90608 5.2773 8.23733 5.60855C8.40011 5.77086 8.52919 5.96375 8.61714 6.17613C8.7051 6.38851 8.75019 6.61618 8.74983 6.84605C8.74983 7.31324 8.56702 7.7523 8.23733 8.08355Z" fill="white"/>
</svg>
