<svg width="10" height="10" viewBox="0 0 10 10" fill="none" xmlns="http://www.w3.org/2000/svg">
<path d="M9.60703 6.27072L8.876 5.64572C8.9106 5.43367 8.92846 5.21715 8.92846 5.00063C8.92846 4.78412 8.9106 4.5676 8.876 4.35554L9.60703 3.73054C9.66217 3.68334 9.70163 3.62047 9.72017 3.5503C9.73871 3.48012 9.73545 3.40596 9.71082 3.33769L9.70078 3.30867C9.49953 2.7462 9.19817 2.22478 8.81127 1.76961L8.79118 1.74617C8.74424 1.69098 8.68169 1.65131 8.61176 1.63238C8.54183 1.61346 8.4678 1.61616 8.39944 1.64014L7.49207 1.96269C7.15725 1.68813 6.78337 1.47162 6.37935 1.31983L6.20412 0.371169C6.1909 0.299788 6.15628 0.234118 6.10485 0.182886C6.05341 0.131653 5.98761 0.0972817 5.91618 0.084339L5.88604 0.0787586C5.30457 -0.0261521 4.69296 -0.0261521 4.11149 0.0787586L4.08136 0.084339C4.00992 0.0972817 3.94412 0.131653 3.89269 0.182886C3.84126 0.234118 3.80663 0.299788 3.79341 0.371169L3.61707 1.32429C3.21628 1.47611 2.84304 1.69251 2.51216 1.96492L1.5981 1.64014C1.52976 1.61597 1.45568 1.61317 1.3857 1.63211C1.31573 1.65104 1.25318 1.69083 1.20636 1.74617L1.18627 1.76961C0.799824 2.2251 0.498517 2.74643 0.296759 3.30867L0.286714 3.33769C0.236491 3.4772 0.277785 3.63345 0.390509 3.73054L1.13046 4.36224C1.09587 4.57206 1.07912 4.78635 1.07912 4.99952C1.07912 5.2138 1.09587 5.42809 1.13046 5.63679L0.390509 6.26849C0.33537 6.31569 0.295906 6.37856 0.277366 6.44874C0.258825 6.51891 0.262086 6.59307 0.286714 6.66135L0.296759 6.69037C0.498767 7.25287 0.797875 7.77184 1.18627 8.22943L1.20636 8.25287C1.25329 8.30805 1.31585 8.34773 1.38578 8.36665C1.45571 8.38558 1.52973 8.38287 1.5981 8.35889L2.51216 8.03412C2.84475 8.30755 3.2164 8.52407 3.61707 8.67474L3.79341 9.62787C3.80663 9.69925 3.84126 9.76492 3.89269 9.81615C3.94412 9.86738 4.00992 9.90175 4.08136 9.9147L4.11149 9.92028C4.69831 10.0257 5.29923 10.0257 5.88604 9.92028L5.91618 9.9147C5.98761 9.90175 6.05341 9.86738 6.10485 9.81615C6.15628 9.76492 6.1909 9.69925 6.20412 9.62787L6.37935 8.67921C6.7832 8.52782 7.1592 8.31059 7.49207 8.03635L8.39944 8.35889C8.46778 8.38306 8.54186 8.38587 8.61183 8.36693C8.6818 8.34799 8.74436 8.30821 8.79118 8.25287L8.81127 8.22943C9.19966 7.77072 9.49877 7.25287 9.70078 6.69037L9.71082 6.66135C9.76104 6.52407 9.71975 6.36782 9.60703 6.27072V6.27072ZM8.08359 4.48724C8.11149 4.65577 8.126 4.82876 8.126 5.00175C8.126 5.17474 8.11149 5.34773 8.08359 5.51626L8.00993 5.9638L8.84363 6.67697C8.71725 6.96814 8.55771 7.24377 8.36819 7.4984L7.33247 7.13121L6.98203 7.41916C6.71529 7.63791 6.41841 7.80979 6.09698 7.93032L5.67176 8.08992L5.47198 9.17251C5.15677 9.20822 4.83853 9.20822 4.52332 9.17251L4.32354 8.08769L3.90167 7.92586C3.58359 7.80532 3.28783 7.63345 3.02332 7.41581L2.67287 7.12675L1.63046 7.49729C1.44073 7.24171 1.28225 6.96604 1.15502 6.67586L1.99765 5.95599L1.92511 5.50956C1.89832 5.34327 1.88381 5.17139 1.88381 5.00175C1.88381 4.83099 1.89721 4.66023 1.92511 4.49394L1.99765 4.04751L1.15502 3.32764C1.28113 3.03635 1.44073 2.76179 1.63046 2.50621L2.67287 2.87675L3.02332 2.58769C3.28783 2.37005 3.58359 2.19818 3.90167 2.07764L4.32466 1.91804L4.52444 0.833223C4.83805 0.797509 5.15837 0.797509 5.4731 0.833223L5.67287 1.91581L6.0981 2.07541C6.41841 2.19595 6.7164 2.36782 6.98314 2.58657L7.33359 2.87452L8.3693 2.50733C8.55904 2.76291 8.71752 3.03858 8.84475 3.32876L8.01104 4.04193L8.08359 4.48724ZM4.99988 2.92586C3.91506 2.92586 3.0356 3.80532 3.0356 4.89014C3.0356 5.97496 3.91506 6.85443 4.99988 6.85443C6.0847 6.85443 6.96417 5.97496 6.96417 4.89014C6.96417 3.80532 6.0847 2.92586 4.99988 2.92586ZM5.88381 5.77407C5.76788 5.89034 5.6301 5.98254 5.4784 6.04536C5.3267 6.10819 5.16408 6.1404 4.99988 6.14014C4.66618 6.14014 4.35256 6.00956 4.11595 5.77407C3.99969 5.65814 3.90749 5.52036 3.84466 5.36866C3.78184 5.21696 3.74963 5.05434 3.74988 4.89014C3.74988 4.55644 3.88046 4.24282 4.11595 4.00621C4.35256 3.76961 4.66618 3.64014 4.99988 3.64014C5.33359 3.64014 5.64721 3.76961 5.88381 4.00621C6.00008 4.12215 6.09228 4.25993 6.1551 4.41163C6.21793 4.56333 6.25014 4.72595 6.24988 4.89014C6.24988 5.22385 6.1193 5.53746 5.88381 5.77407Z" fill="black" fill-opacity="0.85"/>
</svg>
