<svg width="18" height="18" viewBox="0 0 18 18" fill="none" xmlns="http://www.w3.org/2000/svg">
<path d="M17.2926 11.2872L15.9768 10.1622C16.0391 9.78051 16.0712 9.39077 16.0712 9.00104C16.0712 8.61131 16.0391 8.22158 15.9768 7.83988L17.2926 6.71488C17.3919 6.62992 17.4629 6.51675 17.4963 6.39044C17.5297 6.26412 17.5238 6.13064 17.4795 6.00774L17.4614 5.95551C17.0991 4.94306 16.5567 4.00451 15.8603 3.18519L15.8241 3.14301C15.7396 3.04367 15.627 2.97226 15.5012 2.93819C15.3753 2.90412 15.242 2.90899 15.119 2.95216L13.4857 3.53274C12.883 3.03854 12.2101 2.64881 11.4828 2.3756L11.1674 0.668007C11.1436 0.53952 11.0813 0.421316 10.9887 0.329096C10.8961 0.236877 10.7777 0.175009 10.6491 0.151712L10.5949 0.141668C9.54823 -0.0471715 8.44733 -0.0471715 7.40068 0.141668L7.34644 0.151712C7.21786 0.175009 7.09942 0.236877 7.00684 0.329096C6.91426 0.421316 6.85193 0.53952 6.82814 0.668007L6.51073 2.38363C5.7893 2.6569 5.11747 3.04643 4.52189 3.53676L2.87658 2.95216C2.75356 2.90865 2.62022 2.9036 2.49427 2.93769C2.36832 2.97178 2.25572 3.04339 2.17144 3.14301L2.13528 3.18519C1.43968 4.00509 0.897331 4.94348 0.534165 5.95551L0.516085 6.00774C0.425683 6.25885 0.500014 6.54011 0.702915 6.71488L2.03484 7.85194C1.97256 8.22961 1.94242 8.61533 1.94242 8.99903C1.94242 9.38475 1.97256 9.77046 2.03484 10.1461L0.702915 11.2832C0.603666 11.3682 0.532631 11.4813 0.499258 11.6076C0.465885 11.7339 0.471754 11.8674 0.516085 11.9903L0.534165 12.0426C0.897781 13.0551 1.43617 13.9892 2.13528 14.8129L2.17144 14.8551C2.25593 14.9544 2.36853 15.0258 2.4944 15.0599C2.62028 15.0939 2.75352 15.0891 2.87658 15.0459L4.52189 14.4613C5.12055 14.9535 5.78952 15.3432 6.51073 15.6144L6.82814 17.3301C6.85193 17.4585 6.91426 17.5768 7.00684 17.669C7.09942 17.7612 7.21786 17.8231 7.34644 17.8464L7.40068 17.8564C8.45695 18.0463 9.53861 18.0463 10.5949 17.8564L10.6491 17.8464C10.7777 17.8231 10.8961 17.7612 10.9887 17.669C11.0813 17.5768 11.1436 17.4585 11.1674 17.3301L11.4828 15.6225C12.2098 15.35 12.8866 14.959 13.4857 14.4653L15.119 15.0459C15.242 15.0894 15.3753 15.0945 15.5013 15.0604C15.6272 15.0263 15.7398 14.9547 15.8241 14.8551L15.8603 14.8129C16.5594 13.9872 17.0978 13.0551 17.4614 12.0426L17.4795 11.9903C17.5699 11.7432 17.4955 11.462 17.2926 11.2872V11.2872ZM14.5505 8.07694C14.6007 8.38028 14.6268 8.69167 14.6268 9.00305C14.6268 9.31444 14.6007 9.62582 14.5505 9.92917L14.4179 10.7347L15.9185 12.0185C15.691 12.5426 15.4039 13.0387 15.0627 13.497L13.1985 12.8361L12.5676 13.3544C12.0875 13.7481 11.5531 14.0575 10.9746 14.2745L10.2092 14.5618L9.84957 16.5104C9.28219 16.5747 8.70936 16.5747 8.14198 16.5104L7.78238 14.5577L7.023 14.2664C6.45046 14.0495 5.91809 13.7401 5.44198 13.3484L4.81117 12.8281L2.93484 13.495C2.59332 13.035 2.30805 12.5388 2.07903 12.0164L3.59577 10.7207L3.46519 9.91711C3.41698 9.61778 3.39086 9.30841 3.39086 9.00305C3.39086 8.69569 3.41497 8.38832 3.46519 8.08899L3.59577 7.28542L2.07903 5.98966C2.30604 5.46533 2.59332 4.97113 2.93484 4.51109L4.81117 5.17805L5.44198 4.65774C5.91809 4.266 6.45046 3.95662 7.023 3.73966L7.78439 3.45238L8.14399 1.4997C8.7085 1.43542 9.28506 1.43542 9.85158 1.4997L10.2112 3.44836L10.9766 3.73564C11.5531 3.95261 12.0895 4.26198 12.5697 4.65573L13.2005 5.17403L15.0647 4.5131C15.4063 4.97314 15.6915 5.46935 15.9205 5.99167L14.4199 7.27537L14.5505 8.07694ZM8.99979 5.26644C7.04711 5.26644 5.46408 6.84948 5.46408 8.80216C5.46408 10.7548 7.04711 12.3379 8.99979 12.3379C10.9525 12.3379 12.5355 10.7548 12.5355 8.80216C12.5355 6.84948 10.9525 5.26644 8.99979 5.26644ZM10.5909 10.3932C10.3822 10.6025 10.1342 10.7685 9.86112 10.8816C9.58806 10.9946 9.29534 11.0526 8.99979 11.0522C8.39912 11.0522 7.83461 10.8171 7.40872 10.3932C7.19944 10.1845 7.03348 9.93654 6.92039 9.66349C6.80731 9.39043 6.74933 9.09771 6.74979 8.80216C6.74979 8.20149 6.98483 7.63698 7.40872 7.21109C7.83461 6.78519 8.39912 6.55216 8.99979 6.55216C9.60046 6.55216 10.165 6.78519 10.5909 7.21109C10.8001 7.41977 10.9661 7.66778 11.0792 7.94083C11.1923 8.21389 11.2503 8.50661 11.2498 8.80216C11.2498 9.40283 11.0147 9.96734 10.5909 10.3932Z" fill="black" fill-opacity="0.85"/>
</svg>
