<svg width="20" height="20" viewBox="0 0 20 20" fill="none" xmlns="http://www.w3.org/2000/svg">
<path d="M19.2141 12.5413L17.752 11.2913C17.8212 10.8672 17.8569 10.4342 17.8569 10.0011C17.8569 9.56811 17.8212 9.13507 17.752 8.71097L19.2141 7.46097C19.3243 7.36656 19.4033 7.24082 19.4403 7.10047C19.4774 6.96012 19.4709 6.81181 19.4216 6.67525L19.4016 6.61722C18.9991 5.49228 18.3963 4.44944 17.6225 3.53909L17.5824 3.49222C17.4885 3.38184 17.3634 3.3025 17.2235 3.26464C17.0837 3.22679 16.9356 3.2322 16.7989 3.28016L14.9841 3.92525C14.3145 3.37614 13.5667 2.94311 12.7587 2.63954L12.4082 0.742216C12.3818 0.599454 12.3126 0.468115 12.2097 0.365649C12.1068 0.263183 11.9752 0.194441 11.8324 0.168556L11.7721 0.157395C10.6091 -0.0524263 9.38593 -0.0524263 8.22298 0.157395L8.16271 0.168556C8.01985 0.194441 7.88824 0.263183 7.78538 0.365649C7.68251 0.468115 7.61326 0.599454 7.58682 0.742216L7.23414 2.64847C6.43255 2.9521 5.68608 3.38491 5.02432 3.92972L3.1962 3.28016C3.05951 3.23182 2.91135 3.22621 2.77141 3.26409C2.63146 3.30197 2.50636 3.38153 2.41271 3.49222L2.37254 3.53909C1.59965 4.45008 0.997035 5.49275 0.593517 6.61722L0.573428 6.67525C0.472981 6.95427 0.555571 7.26677 0.781017 7.46097L2.26093 8.72436C2.19173 9.144 2.15825 9.57257 2.15825 9.99891C2.15825 10.4275 2.19173 10.8561 2.26093 11.2735L0.781017 12.5369C0.67074 12.6313 0.591813 12.757 0.554731 12.8974C0.51765 13.0377 0.524171 13.186 0.573428 13.3226L0.593517 13.3806C0.997535 14.5056 1.59575 15.5436 2.37254 16.4587L2.41271 16.5056C2.50658 16.616 2.6317 16.6953 2.77156 16.7332C2.91142 16.771 3.05947 16.7656 3.1962 16.7177L5.02432 16.0681C5.6895 16.615 6.4328 17.048 7.23414 17.3494L7.58682 19.2556C7.61326 19.3984 7.68251 19.5297 7.78538 19.6322C7.88824 19.7346 8.01985 19.8034 8.16271 19.8293L8.22298 19.8404C9.39661 20.0514 10.5985 20.0514 11.7721 19.8404L11.8324 19.8293C11.9752 19.8034 12.1068 19.7346 12.2097 19.6322C12.3126 19.5297 12.3818 19.3984 12.4082 19.2556L12.7587 17.3583C13.5664 17.0555 14.3184 16.6211 14.9841 16.0726L16.7989 16.7177C16.9356 16.766 17.0837 16.7716 17.2237 16.7337C17.3636 16.6959 17.4887 16.6163 17.5824 16.5056L17.6225 16.4587C18.3993 15.5413 18.9975 14.5056 19.4016 13.3806L19.4216 13.3226C19.5221 13.048 19.4395 12.7355 19.2141 12.5413V12.5413ZM16.1672 8.97436C16.223 9.31141 16.252 9.6574 16.252 10.0034C16.252 10.3494 16.223 10.6953 16.1672 11.0324L16.0199 11.9275L17.6873 13.3538C17.4345 13.9362 17.1154 14.4874 16.7364 14.9967L14.6649 14.2623L13.9641 14.8382C13.4306 15.2757 12.8368 15.6195 12.194 15.8605L11.3435 16.1797L10.944 18.3449C10.3135 18.4163 9.67707 18.4163 9.04664 18.3449L8.64709 16.1753L7.80334 15.8516C7.16718 15.6105 6.57566 15.2668 6.04664 14.8315L5.34575 14.2534L3.26093 14.9944C2.88146 14.4833 2.5645 13.9319 2.31003 13.3516L3.9953 11.9119L3.85021 11.019C3.79664 10.6864 3.76762 10.3427 3.76762 10.0034C3.76762 9.66186 3.79441 9.32034 3.85021 8.98775L3.9953 8.0949L2.31003 6.65516C2.56227 6.07257 2.88146 5.52347 3.26093 5.01231L5.34575 5.75338L6.04664 5.17525C6.57566 4.73998 7.16718 4.39623 7.80334 4.15516L8.64932 3.83597L9.04887 1.66632C9.67611 1.5949 10.3167 1.5949 10.9462 1.66632L11.3457 3.8315L12.1962 4.1507C12.8368 4.39177 13.4328 4.73552 13.9663 5.17302L14.6672 5.74891L16.7386 5.01454C17.1181 5.5257 17.435 6.07704 17.6895 6.6574L16.0221 8.08373L16.1672 8.97436ZM9.99977 5.85159C7.83012 5.85159 6.0712 7.61052 6.0712 9.78016C6.0712 11.9498 7.83012 13.7087 9.99977 13.7087C12.1694 13.7087 13.9283 11.9498 13.9283 9.78016C13.9283 7.61052 12.1694 5.85159 9.99977 5.85159ZM11.7676 11.548C11.5358 11.7806 11.2602 11.965 10.9568 12.0906C10.6534 12.2163 10.3282 12.2807 9.99977 12.2802C9.33236 12.2802 8.70512 12.019 8.23191 11.548C7.99937 11.3162 7.81498 11.0406 7.68933 10.7372C7.56368 10.4338 7.49926 10.1085 7.49977 9.78016C7.49977 9.11275 7.76093 8.48552 8.23191 8.01231C8.70512 7.53909 9.33236 7.28016 9.99977 7.28016C10.6672 7.28016 11.2944 7.53909 11.7676 8.01231C12.0002 8.24418 12.1846 8.51974 12.3102 8.82313C12.4359 9.12653 12.5003 9.45178 12.4998 9.78016C12.4998 10.4476 12.2386 11.0748 11.7676 11.548Z" fill="black" fill-opacity="0.85"/>
</svg>
